# xmcd
#
# Track frame offsets: 
#        150
#        13272
#        30303
#        47153
#        62214
#        79045
#        96168
#        109239
#        136604
#        150626
#        166993
#        184168
#        193475
#        211752
#
# Disc length: 3174 seconds
#
# Revision: 0
# Processed by: cddbd v1.5.2PL0 Copyright (c) Steve Scherf et al.
# Submitted via: ExactAudioCopyFreeDBPlugin 1.0
#
DISCID=b90c640e
DTITLE=Vince Gill and Paul Franklin - Bakersfield - Deluxe Edition
DYEAR=2014
DGENRE=Country
TTITLE0=Foolin' Around
TTITLE1=Branded Man
TTITLE2=Together Again
TTITLE3=The Bottle Let Me Down
TTITLE4=He Don't Deserve You Anymore
TTITLE5=I Can't Be Myself
TTITLE6=Nobody's Fool But Yours
TTITLE7=Holding Things Together
TTITLE8=But I Do
TTITLE9=The Fightin' Side of Me
TTITLE10=Your Tender Loving Care
TTITLE11=Buckin' Merle
TTITLE12=I Threw Away The Rose
TTITLE13=High On A Hilltop
EXTD=
EXTT0=
EXTT1=
EXTT2=
EXTT3=
EXTT4=
EXTT5=
EXTT6=
EXTT7=
EXTT8=
EXTT9=
EXTT10=
EXTT11=
EXTT12=
EXTT13=
PLAYORDER=
